<svg width="32" height="32" viewBox="0 0 32 32" fill="none" xmlns="http://www.w3.org/2000/svg">
<circle cx="16" cy="16" r="16" fill="black"/>
<path d="M22.478 14.5428C22.9694 14.177 23.4296 13.8361 23.9608 13.4426C23.974 13.6818 23.9915 13.8526 23.9916 14.0235C23.993 16.0152 23.987 18.0069 23.9938 19.9986C23.9963 20.75 23.7407 21.3445 23.1013 21.7982C22.1173 22.4965 21.1639 23.2366 20.1426 24.0001C20.1262 23.8415 20.1047 23.7292 20.1045 23.6169C20.1019 21.3486 20.1079 19.0802 20.0943 16.8119C20.0922 16.4685 20.1773 16.2372 20.4776 16.0303C21.1508 15.5665 21.7924 15.058 22.478 14.5428Z" fill="#F9F9F8"/>
<path d="M11.6338 23.809C10.7087 23.1196 9.82742 22.4355 8.91754 21.7906C8.32144 21.3681 8.00624 20.8226 8.00397 20.1101C7.99693 17.9016 8.0014 15.6931 8.0014 13.3835C8.38031 13.6651 8.70095 13.9017 9.01984 14.1406C9.8677 14.7756 10.7232 15.4013 11.5549 16.0563C11.717 16.1839 11.8805 16.4266 11.8822 16.6176C11.9042 19.0492 11.8967 21.4811 11.8967 23.9741C11.801 23.9149 11.7332 23.8729 11.6338 23.809Z" fill="#FAFAF9"/>
<path d="M11.6634 13.6074C10.7136 12.8854 9.79066 12.1932 8.87913 11.4868C7.91411 10.7389 7.72991 9.64052 8.40778 8.77095C9.07509 7.91493 10.3334 7.76196 11.2667 8.46057C12.7111 9.54184 14.1366 10.6478 15.5701 11.7433C15.7154 11.8543 15.8608 11.9651 16.0287 12.0932C17.5549 10.9097 19.0739 9.74582 20.5753 8.56021C21.1351 8.11809 21.7304 7.88443 22.4431 8.05709C23.2146 8.24396 23.7269 8.71119 23.9304 9.47762C24.1327 10.2394 23.8856 10.8766 23.2778 11.3468C20.8658 13.2128 18.4397 15.0612 15.99 16.9383C14.548 15.8278 13.1217 14.7294 11.6634 13.6074Z" fill="#FCFCFC"/>
<path d="M18.1152 18.0763C18.102 19.1681 18.1321 20.221 18.0637 21.2677C17.9939 22.3357 16.9882 23.1663 15.9255 23.1286C14.8372 23.09 13.9545 22.221 13.9129 21.1363C13.8988 20.7682 13.9086 20.3992 13.9084 20.0306C13.908 19.3131 13.9082 18.5956 13.9082 17.7881C14.6424 18.3408 15.3283 18.8572 16.0507 19.4011C16.6316 18.9536 17.213 18.4984 17.8061 18.0588C17.8759 18.0071 18.0106 18.0406 18.1152 18.0763Z" fill="#FBFBFA"/>
</svg>